<?xml version="1.0" encoding="iso-8859-1"?>
<!-- Generator: Adobe Illustrator 19.0.0, SVG Export Plug-In . SVG Version: 6.00 Build 0)  -->
<svg version="1.1" id="Capa_1" xmlns="http://www.w3.org/2000/svg" xmlns:xlink="http://www.w3.org/1999/xlink" x="0px" y="0px"
	 viewBox="0 0 512 512" style="enable-background:new 0 0 512 512;" xml:space="preserve">
<circle style="fill:#FFDE1F;" cx="256" cy="256" r="256"/>
<path style="fill:#F9C41E;" d="M93.817,262l238.446,238.446C436.402,467.991,512,370.825,512,256c0-1.605-0.031-3.202-0.061-4.8
	l-84.916-84.916L93.817,262z"/>
<path style="fill:#1B56DB;" d="M369.667,280.924H142.333c-39.58,0-71.667-32.086-71.667-71.667l0,0
	c0-39.58,32.086-71.667,71.667-71.667h227.333c39.58,0,71.667,32.086,71.667,71.667l0,0
	C441.333,248.838,409.247,280.924,369.667,280.924z"/>
<path style="fill:#0619BD;" d="M369.667,137.591H255.571v143.333h114.095c39.58,0,71.667-32.086,71.667-71.667l0,0
	C441.333,169.677,409.247,137.591,369.667,137.591z"/>
<g>
	<path style="fill:#FFFFFF;" d="M194.337,230.184c0,4.055-0.838,7.581-2.511,10.575c-1.675,2.997-3.966,5.486-6.874,7.469
		s-6.302,3.482-10.179,4.495c-3.879,1.014-7.977,1.52-12.293,1.52h-45.738v-93.854h52.215c3.259,0,6.213,0.706,8.857,2.115
		c2.644,1.411,4.891,3.239,6.742,5.486c1.851,2.248,3.282,4.805,4.296,7.667c1.012,2.865,1.521,5.796,1.521,8.791
		c0,4.494-1.124,8.724-3.371,12.69c-2.247,3.966-5.618,6.963-10.112,8.989c5.374,1.586,9.627,4.408,12.756,8.46
		C192.771,218.64,194.337,223.839,194.337,230.184z M138.421,178.895v19.432h21.283c2.379,0,4.494-0.793,6.345-2.379
		s2.776-4.053,2.776-7.403c0-3.083-0.816-5.463-2.446-7.138c-1.632-1.673-3.592-2.512-5.882-2.512H138.421z M172.261,225.822
		c0-2.908-0.838-5.374-2.511-7.402c-1.675-2.026-3.79-3.041-6.345-3.041h-24.984v20.489h24.059c2.819,0,5.155-0.925,7.006-2.776
		S172.261,228.819,172.261,225.822z"/>
	<path style="fill:#FFFFFF;" d="M253.953,235.736c3.702,0,6.829-0.771,9.386-2.313c2.555-1.541,4.626-3.59,6.213-6.147
		c1.586-2.555,2.71-5.486,3.371-8.791s0.992-6.675,0.992-10.112v-47.985h21.679v47.985c0,6.522-0.816,12.604-2.446,18.242
		c-1.632,5.641-4.143,10.575-7.535,14.805c-3.394,4.23-7.712,7.558-12.955,9.98c-5.244,2.425-11.48,3.635-18.705,3.635
		c-7.491,0-13.88-1.276-19.167-3.833c-5.288-2.555-9.583-5.969-12.888-10.245c-3.305-4.273-5.729-9.23-7.271-14.871
		c-1.543-5.639-2.313-11.544-2.313-17.713v-47.985h21.679v47.985c0,3.614,0.351,7.051,1.058,10.311
		c0.704,3.261,1.851,6.169,3.437,8.725c1.586,2.557,3.635,4.583,6.146,6.081C247.146,234.988,250.252,235.736,253.953,235.736z"/>
</g>
<g>
	<path style="fill:#E6E6E6;" d="M273.914,160.388v47.985c0,3.437-0.331,6.808-0.992,10.112c-0.661,3.305-1.784,6.236-3.371,8.791
		c-1.586,2.557-3.658,4.606-6.213,6.147c-2.175,1.312-4.766,2.06-7.767,2.256v19.322c6.537-0.17,12.241-1.36,17.087-3.601
		c5.242-2.422,9.561-5.75,12.955-9.98c3.392-4.23,5.903-9.165,7.535-14.805c1.63-5.639,2.446-11.72,2.446-18.242v-47.985
		L273.914,160.388L273.914,160.388z"/>
	<path style="fill:#E6E6E6;" d="M332.341,160.388l20.225,43.094l20.622-43.094h23.53l-33.312,61.865v31.99h-21.679v-32.254
		l-32.916-61.6h23.53V160.388z"/>
</g>
<polygon style="fill:#37474F;" points="345.664,326.415 191.686,266.314 251.785,420.291 271.833,377.223 334.749,440.139 
	365.511,409.378 302.596,346.462 "/>
<polygon style="fill:#263238;" points="191.706,266.341 251.785,420.291 271.833,377.223 334.749,440.139 350.075,424.813 "/>
<g>
</g>
<g>
</g>
<g>
</g>
<g>
</g>
<g>
</g>
<g>
</g>
<g>
</g>
<g>
</g>
<g>
</g>
<g>
</g>
<g>
</g>
<g>
</g>
<g>
</g>
<g>
</g>
<g>
</g>
</svg>
