<?xml version="1.0" encoding="iso-8859-1"?>
<!-- Generator: Adobe Illustrator 19.0.0, SVG Export Plug-In . SVG Version: 6.00 Build 0)  -->
<svg version="1.1" id="Capa_1" xmlns="http://www.w3.org/2000/svg" xmlns:xlink="http://www.w3.org/1999/xlink" x="0px" y="0px"
	 viewBox="0 0 512 512" style="enable-background:new 0 0 512 512;" xml:space="preserve">
<path style="fill:#26406D;" d="M0,256.008C0,114.628,114.62-1.566,255.991,0.017C398.75,1.616,513.631,116.54,511.982,256.008
	c-1.672,141.37-114.611,255.991-255.991,255.991S0,397.388,0,256.008z"/>
<path style="fill:#11244F;" d="M511.982,256.008c0.104-8.794-0.258-17.489-1.059-26.066l-70.931-70.93L320.829,257.91
	L182.64,119.721L72.006,353.004l157.654,157.654c8.657,0.885,17.44,1.34,26.33,1.34C397.371,511.999,510.31,397.378,511.982,256.008
	z"/>
<circle style="fill:#FFDE1F;" cx="142.835" cy="152.594" r="51.623"/>
<g>
	<path style="fill:#F9C41E;" d="M194.46,152.594c0-28.431-22.984-51.488-51.385-51.617v103.234
		C171.476,204.083,194.46,181.025,194.46,152.594z"/>
	<circle style="fill:#F9C41E;" cx="142.835" cy="152.594" r="32.874"/>
</g>
<path style="fill:#FE9A35;" d="M175.711,152.594c0-18.075-14.59-32.739-32.636-32.868v65.736
	C161.12,185.333,175.711,170.67,175.711,152.594z"/>
<circle style="fill:#FFDE1F;" cx="335.458" cy="347.218" r="70.328"/>
<g>
	<path style="fill:#F9C41E;" d="M335.455,276.882c-0.042,0-0.083,0.003-0.125,0.003V417.54c0.042,0,0.083,0.003,0.125,0.003
		c38.843,0,70.331-31.488,70.331-70.331S374.298,276.882,335.455,276.882z"/>
	<circle style="fill:#F9C41E;" cx="335.458" cy="347.218" r="44.786"/>
</g>
<path style="fill:#FE9A35;" d="M335.455,302.425c-0.042,0-0.083,0.003-0.125,0.003v89.567c0.042,0,0.083,0.003,0.125,0.003
	c24.735,0,44.786-20.051,44.786-44.787C380.242,322.477,360.19,302.425,335.455,302.425z"/>
<rect x="72.007" y="159.014" style="fill:#42DB8F;" width="367.987" height="193.993"/>
<rect x="255.571" y="159.014" style="fill:#0ACB72;" width="184.424" height="193.993"/>
<rect x="114.006" y="207.012" style="fill:#6AEAA6;" width="283.99" height="97.997"/>
<rect x="255.571" y="207.012" style="fill:#61D191;" width="142.425" height="97.997"/>
<ellipse style="fill:#0ACB72;" cx="256.001" cy="256.011" rx="63.668" ry="85.667"/>
<path style="fill:#02AA56;" d="M256,170.344c-0.144,0-0.285,0.013-0.429,0.015v171.298c0.144,0.001,0.285,0.014,0.429,0.014
	c35.161,0,63.665-38.353,63.665-85.664S291.161,170.344,256,170.344z"/>
<path style="fill:#FFFFFF;" d="M289.999,277.776c0-14.463-11.331-26.451-25.999-28.389v-27.152h20.999v-15.999H264v-9.893H248v9.921
	c-16.094,0.588-28.999,13.207-28.999,28.642v1.53c0,15.434,12.905,28.053,28.999,28.642v25.369h-20.999v15.999H248v9.894H264
	v-10.174C278.668,304.227,289.999,292.238,289.999,277.776z M235.001,236.436v-1.53c0-6.633,5.733-12.082,13-12.618v26.765
	C240.733,248.517,235.001,243.068,235.001,236.436z M264,289.885v-24.216c5.785,1.596,10,6.42,10,12.108
	C273.999,283.465,269.784,288.288,264,289.885z"/>
<path style="fill:#E6E6E6;" d="M264,249.387v-27.152h20.999v-15.999H264v-9.893h-8.429v119.996H264v-10.174
	c14.668-1.938,25.999-13.927,25.999-28.389C289.999,263.313,278.668,251.325,264,249.387z M264,289.885v-24.216
	c5.785,1.596,10,6.42,10,12.108C273.999,283.465,269.784,288.288,264,289.885z"/>
<g>
</g>
<g>
</g>
<g>
</g>
<g>
</g>
<g>
</g>
<g>
</g>
<g>
</g>
<g>
</g>
<g>
</g>
<g>
</g>
<g>
</g>
<g>
</g>
<g>
</g>
<g>
</g>
<g>
</g>
</svg>
