<svg id="Layer_1" enable-background="new 0 0 256 256" height="512" viewBox="0 0 256 256" width="512" xmlns="http://www.w3.org/2000/svg"><g><g><g><g><circle cx="203.433" cy="76.413" fill="#f46275" r="18.915"/></g></g><g><g><path d="m213.95 76.413c0-9.001-6.293-16.519-14.716-18.431 1.352-.307 2.754-.484 4.199-.484 10.447 0 18.915 8.469 18.915 18.915 0 10.447-8.469 18.915-18.915 18.915-1.445 0-2.847-.177-4.199-.484 8.422-1.911 14.716-9.429 14.716-18.431z" fill="#f48875"/></g></g><g><g><g><path d="m204.243 64.352c1.4 0 1.531.847 1.433 2.41l-.586 11.169c-.065 1.14-.326 2.084-1.661 2.084s-1.595-.944-1.661-2.084l-.586-11.169c-.065-1.563 0-2.41 1.4-2.41zm-.391 20.775c1.237 0 1.824.619 1.824 1.856v.847c0 1.237-.586 1.856-1.824 1.856h-.847c-1.237 0-1.823-.619-1.823-1.856v-.847c0-1.237.586-1.856 1.823-1.856z" fill="#3f3679"/></g></g></g></g><g><g><g><circle cx="90.282" cy="76.413" fill="#f87023" r="9.763"/></g></g><g><g><circle cx="165.718" cy="76.413" fill="#f8af23" r="9.763"/></g></g></g><g><g><path d="m90.282 51.096v38.424c0 13.603 7.299 25.584 18.173 32.221 5.709 3.485 12.403 5.497 19.545 5.497 7.142 0 13.836-2.012 19.545-5.497 10.874-6.637 18.173-18.618 18.173-32.221v-38.424z" fill="#f8af23"/></g></g><g><g><path d="m98.681 89.52v-38.424h-8.399v38.424c0 13.603 7.299 25.584 18.173 32.221 5.709 3.485 12.403 5.497 19.545 5.497 1.421 0 2.818-.101 4.199-.256-5.561-.624-10.773-2.449-15.346-5.24-10.874-6.639-18.172-18.619-18.172-32.222z" fill="#f87023"/></g></g><g><g><g><path d="m37.39 211.377 13.11 21.233 13.11-21.233-9.151 2.411v-15.315h-7.918v15.315z" fill="#f8af23"/></g></g><g><g><path d="m188.89 211.377 13.11 21.233 13.11-21.233-9.151 2.411v-15.315h-7.918v15.315z" fill="#f8af23"/></g></g><g><g><path d="m114.804 211.377 13.11 21.233 13.11-21.233-9.152 2.411v-15.315h-7.917v15.315z" fill="#f8af23"/></g></g></g><g><g><path d="m147.541 136.407.005-.003v-14.664h-.001c-5.709 3.485-12.403 5.497-19.545 5.497-7.142 0-13.836-2.012-19.545-5.497h-.001v14.664l.005.003 19.541 12.315z" fill="#f8af23"/></g></g><g><g><path d="m213.778 173.513c-6.546-17.657-22.155-30.373-40.771-33.216l-25.467-3.889-19.54 12.314-19.541-12.315-25.467 3.889c-18.616 2.843-34.224 15.56-40.771 33.216l-9.254 24.96h95.009.047 95.009z" fill="#63bce7"/></g></g><g><g><path d="m213.778 173.513c-6.546-17.657-22.155-30.373-40.771-33.216l-25.467-3.889-1.638 1.032 18.706 2.857c18.615 2.843 34.224 15.56 40.771 33.216l9.254 24.96h8.399z" fill="#63e2e7"/></g></g><g><g><g><circle cx="110.588" cy="81.942" fill="#3f3679" r="3.581"/></g></g><g><g><circle cx="145.412" cy="81.942" fill="#3f3679" r="3.581"/></g></g></g><g><g><path d="m128 148.722-19.541-12.315-16.898 2.581 25.836 18.192z" fill="#f46275"/></g></g><g><g><path d="m91.561 138.988 25.836 18.192 5.172-4.125-21.943-15.452z" fill="#f43075"/></g></g><g><g><path d="m128 148.722 19.541-12.315 16.898 2.581-25.836 18.192z" fill="#f46275"/></g></g><g><g><path d="m138.603 157.18-10.603-8.458-10.603 8.458 6.344 7.321-6.344 33.972h21.206l-6.477-34.039z" fill="#9e9e9e"/></g></g><g><g><path d="m90.282 66.65 20.306-15.554s23.753 20.675 55.13 10.666c0 0 22.257-8.725 12.15-33.634 0 0-12.379-32.389-61.895-4.997 0 0-31.915-5.067-32.659 18.805-.2 6.416 6.968 24.714 6.968 24.714z" fill="#9e9e9e"/></g></g><g><g><path d="m177.868 28.128s-6.948-18.173-31.247-15.78c17.544 1.909 22.849 15.78 22.849 15.78 10.107 24.91-12.15 33.634-12.15 33.634-4.591 1.465-9.013 2.257-13.227 2.569 6.581.5 13.869-.094 21.626-2.569-.001 0 22.256-8.724 12.149-33.634z" fill="#cecece"/></g></g><g><g><path d="m108.455 121.741-.001 14.664.005.003 8.394 5.29v-16.172c-2.968-.927-5.79-2.194-8.398-3.785z" fill="#f87023"/></g></g><g><g><path d="m91.391 140.296 18.706-2.857-1.638-1.032-25.467 3.889c-18.616 2.843-34.224 15.56-40.771 33.216l-9.254 24.96h8.399l9.254-24.96c6.547-17.656 22.155-30.373 40.771-33.216z" fill="#6377e7"/></g></g><g><g><path d="m113.417 22.853c-7.573-.608-29.487-.657-30.103 19.083-.2 6.416 6.968 24.714 6.968 24.714l6.538-5.008c-2.109-5.899-5.241-15.433-5.108-19.706.452-14.495 12.391-18.314 21.705-19.083z" fill="#707070"/></g></g><g><g><g><circle cx="52.567" cy="76.413" fill="#f46275" r="18.915"/></g></g><g><g><path d="m42.05 76.413c0-9.001 6.293-16.519 14.716-18.431-1.352-.307-2.754-.484-4.199-.484-10.447 0-18.915 8.469-18.915 18.915 0 10.447 8.469 18.915 18.915 18.915 1.445 0 2.847-.177 4.199-.484-8.422-1.911-14.716-9.429-14.716-18.431z" fill="#f43075"/></g></g><g><g><g><path d="m53.418 64.352c1.4 0 1.465.847 1.4 2.41l-.586 11.168c-.065 1.14-.326 2.084-1.661 2.084s-1.596-.944-1.661-2.084l-.586-11.169c-.098-1.563.033-2.41 1.433-2.41h1.661zm-.423 20.775c1.237 0 1.823.619 1.823 1.856v.847c0 1.237-.586 1.856-1.823 1.856h-.847c-1.237 0-1.824-.619-1.824-1.856v-.847c0-1.237.586-1.856 1.824-1.856z" fill="#3f3679"/></g></g></g></g><g><g><path d="m164.439 138.988-25.836 18.192-5.172-4.125 21.943-15.452z" fill="#f48875"/></g></g><g><g><g><path d="m203.433 96.829c11.257 0 20.415-9.158 20.415-20.415s-9.158-20.415-20.415-20.415-20.415 9.158-20.415 20.415 9.158 20.415 20.415 20.415zm0-37.83c9.603 0 17.415 7.812 17.415 17.415s-7.812 17.415-17.415 17.415-17.415-7.812-17.415-17.415 7.813-17.415 17.415-17.415z" fill="#3f3679"/></g></g><g><g><path d="m214.728 209.927-7.269 1.915v-11.869h15.574c.491 0 .951-.24 1.231-.644.28-.403.346-.917.175-1.378l-9.254-24.96c-6.732-18.158-22.807-31.254-41.95-34.178l-8.569-1.309-15.62-2.385v-12.571c11.224-7.196 18.172-19.763 18.172-33.029v-1.955c5.502-.737 9.763-5.451 9.763-11.151s-4.261-10.413-9.763-11.151v-2.528c2.541-1.215 9.51-5.147 12.911-13.06 2.764-6.433 2.471-13.872-.86-22.082-.164-.427-4.138-10.511-16.282-14.947-12.356-4.514-28.269-1.509-47.299 8.93-3.04-.404-18.114-1.948-27.159 5.534-4.26 3.523-6.519 8.497-6.714 14.78-.171 5.479 4.538 18.595 6.367 23.465-5.209.988-9.163 5.568-9.163 11.059 0 5.701 4.261 10.414 9.763 11.151v1.955c0 13.266 6.948 25.833 18.172 33.029v12.571l-15.62 2.385h-.001l-8.568 1.308c-19.144 2.923-35.218 16.02-41.95 34.178l-9.254 24.96c-.171.46-.105.975.175 1.378.281.403.74.644 1.231.644h12.074v11.869l-7.269-1.915c-.596-.155-1.223.064-1.587.558-.365.493-.394 1.159-.071 1.681l13.11 21.233c.273.442.756.712 1.276.712s1.003-.27 1.276-.712l13.11-21.233c.322-.522.294-1.188-.071-1.681s-.993-.713-1.587-.558l-7.269 1.915v-11.869h61.439 5.058v11.869l-7.269-1.915c-.595-.155-1.223.064-1.587.558-.365.493-.394 1.159-.071 1.681l13.11 21.233c.273.442.756.712 1.276.712s1.003-.27 1.276-.712l13.11-21.233c.322-.522.294-1.188-.071-1.681s-.994-.713-1.587-.558l-7.269 1.915v-11.869h5.23 57.939v11.869l-7.269-1.915c-.594-.155-1.223.064-1.587.558-.365.493-.394 1.159-.071 1.681l13.11 21.233c.273.442.756.712 1.276.712s1.003-.27 1.276-.712l13.11-21.233c.322-.522.294-1.188-.071-1.681s-.995-.713-1.589-.557zm-2.356-35.893 8.505 22.939h-14.918-7.917-58.197l-6.106-32.092 5.869-6.573 25.202-17.746 7.972 1.218c18.066 2.758 33.237 15.117 39.59 32.254zm-102.417-49.726c5.563 2.903 11.749 4.429 18.045 4.429s12.483-1.526 18.046-4.43v11.269l-18.046 11.373-18.046-11.373zm37.913 13.667 12.659 1.933-21.868 15.398-8.073-6.44zm26.113-61.561c0 4.043-2.922 7.411-6.763 8.12v-16.24c3.841.708 6.763 4.076 6.763 8.12zm-83.546-46.988c5.251-4.348 13.149-5.236 18.723-5.236 3.797 0 6.515.412 6.581.422.329.052.668-.007.96-.169 18.397-10.177 33.604-13.206 45.196-9.003 10.863 3.938 14.537 13.134 14.582 13.251 3.025 7.454 3.33 14.104.908 19.767-3.6 8.415-12.132 11.874-12.124 11.874-30.171 9.624-53.458-10.168-53.69-10.369-.539-.467-1.332-.492-1.896-.059l-18.71 14.334c-2.257-6.015-6.292-17.771-6.151-22.255.167-5.382 2.059-9.607 5.621-12.557zm-8.416 46.988c0-4.043 2.922-7.411 6.763-8.12v16.24c-3.841-.709-6.763-4.077-6.763-8.12zm9.763 13.106v-22.129l18.787-14.391c3.777 2.899 18.293 12.954 37.944 12.952 4.939 0 10.206-.641 15.705-2.185v25.753c0 12.514-6.688 24.37-17.454 30.941-5.656 3.452-12.145 5.277-18.764 5.277s-13.107-1.825-18.764-5.277c-10.766-6.572-17.454-18.428-17.454-30.941zm16.35 48.455 17.282 10.891-8.073 6.44-21.868-15.398zm-64.504 36.059c6.354-17.137 21.524-29.496 39.591-32.255l7.972-1.217 25.193 17.739 5.75 6.635-5.982 32.037h-61.694-7.917-11.418zm9.915 40.942c.369.285.847.382 1.298.263l5.52-1.454-9.861 15.97-9.861-15.971 5.52 1.454c.451.118.929.021 1.298-.263s.584-.723.584-1.188v-13.815h4.917v13.815c0 .466.216.905.585 1.189zm77.414 0c.369.285.847.382 1.298.263l5.52-1.454-9.861 15.971-9.861-15.971 5.52 1.454c.452.118.929.021 1.298-.263s.584-.723.584-1.188v-13.815h4.917v13.815c.001.465.216.904.585 1.188zm.916-18.003h-7.917-4.751l6.012-32.197c.084-.449-.042-.912-.341-1.258l-5.32-6.14 8.446-6.737 8.428 6.723-5.42 6.071c-.311.348-.441.821-.354 1.279l6.137 32.259zm70.127 32.782-9.861-15.971 5.52 1.454c.45.118.929.021 1.298-.263s.584-.723.584-1.188v-13.815h4.917v13.815c0 .465.216.904.584 1.188.368.285.847.382 1.298.263l5.52-1.454z" fill="#3f3679"/></g></g><g><g><path d="m128 100.057c.829 0 1.5-.671 1.5-1.5v-10.743c0-.829-.671-1.5-1.5-1.5s-1.5.671-1.5 1.5v10.742c0 .829.671 1.501 1.5 1.501z" fill="#3f3679"/></g></g><g><g><path d="m119.103 109.091c.53.633 1.474.717 2.11.189.248-.206 6.162-4.985 13.698.094.257.173.549.256.837.256.482 0 .956-.232 1.246-.662.463-.687.281-1.619-.406-2.083-4.919-3.314-9.351-3.127-12.2-2.387-3.092.803-5.026 2.417-5.107 2.486-.63.534-.708 1.474-.178 2.107z" fill="#3f3679"/></g></g><g><g><path d="m113.392 73.998c3.092-.803 5.026-2.417 5.107-2.486.631-.533.709-1.474.179-2.106-.529-.633-1.475-.716-2.11-.189-.248.207-6.161 4.986-13.698-.094-.688-.462-1.62-.28-2.083.406-.463.687-.281 1.619.406 2.083 3.21 2.163 6.212 2.835 8.703 2.835 1.325-.001 2.506-.192 3.496-.449z" fill="#3f3679"/></g></g><g><g><path d="m136.824 71.611c3.21 2.163 6.212 2.835 8.703 2.835 1.326 0 2.507-.19 3.497-.448 3.092-.803 5.026-2.417 5.107-2.486.631-.533.709-1.474.179-2.106s-1.475-.716-2.11-.189c-.248.207-6.162 4.986-13.698-.094-.688-.462-1.619-.28-2.083.406s-.282 1.618.405 2.082z" fill="#3f3679"/></g></g><g><g><path d="m52.567 96.829c11.257 0 20.415-9.158 20.415-20.415s-9.158-20.415-20.415-20.415-20.415 9.158-20.415 20.415 9.158 20.415 20.415 20.415zm0-37.83c9.603 0 17.415 7.812 17.415 17.415s-7.812 17.415-17.415 17.415-17.415-7.812-17.415-17.415 7.812-17.415 17.415-17.415z" fill="#3f3679"/></g></g><g><g><path d="m207.171 242.37h-158.342c-.829 0-1.5.671-1.5 1.5s.671 1.5 1.5 1.5h158.343c.829 0 1.5-.671 1.5-1.5s-.672-1.5-1.501-1.5z" fill="#3f3679"/></g></g><g><g><path d="m232.002 242.37h-12.75c-.829 0-1.5.671-1.5 1.5s.671 1.5 1.5 1.5h12.75c.829 0 1.5-.671 1.5-1.5s-.671-1.5-1.5-1.5z" fill="#3f3679"/></g></g><g><g><path d="m36.748 242.37h-12.75c-.829 0-1.5.671-1.5 1.5s.671 1.5 1.5 1.5h12.75c.829 0 1.5-.671 1.5-1.5s-.672-1.5-1.5-1.5z" fill="#3f3679"/></g></g><g><g><path d="m58.327 105.338c-.829 0-1.5.671-1.5 1.5v21.019l-8.508-8.507c-.586-.586-1.535-.586-2.121 0s-.586 1.536 0 2.121l11.068 11.068c.293.293.677.439 1.061.439s.768-.146 1.061-.439l11.068-11.068c.586-.585.586-1.536 0-2.121-.586-.586-1.535-.586-2.121 0l-8.507 8.507v-21.019c-.001-.828-.672-1.5-1.501-1.5z" fill="#3f3679"/></g></g><g><g><path d="m197.673 105.338c-.829 0-1.5.671-1.5 1.5v21.019l-8.507-8.507c-.586-.586-1.535-.586-2.121 0-.586.585-.586 1.536 0 2.121l11.068 11.068c.293.293.677.439 1.061.439s.768-.146 1.061-.439l11.068-11.068c.586-.585.586-1.535 0-2.121s-1.535-.586-2.121 0l-8.508 8.507v-21.019c-.001-.828-.673-1.5-1.501-1.5z" fill="#3f3679"/></g></g></g></g></svg>